<?xml version="1.0" encoding="UTF-8" standalone="no"?>
<!-- Generator: Adobe Illustrator 10, SVG Export Plug-In . SVG Version: 3.0.0 Build 76)  -->
<svg
   xmlns:dc="http://purl.org/dc/elements/1.1/"
   xmlns:cc="http://creativecommons.org/ns#"
   xmlns:rdf="http://www.w3.org/1999/02/22-rdf-syntax-ns#"
   xmlns:svg="http://www.w3.org/2000/svg"
   xmlns="http://www.w3.org/2000/svg"
   xmlns:sodipodi="http://sodipodi.sourceforge.net/DTD/sodipodi-0.dtd"
   xmlns:inkscape="http://www.inkscape.org/namespaces/inkscape"
   width="298.6275"
   height="297.25949"
   viewBox="0 0 468.311 376.432"
   style="overflow:visible"
   xml:space="preserve"
   id="svg2481"
   sodipodi:version="0.32"
   inkscape:version="0.46"
   sodipodi:docname="KnotC.svg"
   inkscape:output_extension="org.inkscape.output.svg.inkscape"
   version="1.0"><metadata
   id="metadata2541"><rdf:RDF><cc:Work
       rdf:about=""><dc:format>image/svg+xml</dc:format><dc:type
         rdf:resource="http://purl.org/dc/dcmitype/StillImage" /></cc:Work></rdf:RDF></metadata><defs
   id="defs2539"><inkscape:perspective
   sodipodi:type="inkscape:persp3d"
   inkscape:vp_x="0 : 188.216 : 1"
   inkscape:vp_y="0 : 1000 : 0"
   inkscape:vp_z="468.311 : 188.216 : 1"
   inkscape:persp3d-origin="234.1555 : 125.47734 : 1"
   id="perspective2543" />
		
		
	</defs><sodipodi:namedview
   inkscape:window-height="670"
   inkscape:window-width="945"
   inkscape:pageshadow="2"
   inkscape:pageopacity="0.0"
   guidetolerance="10.0"
   gridtolerance="10.0"
   objecttolerance="10.0"
   borderopacity="1.0"
   bordercolor="#666666"
   pagecolor="#ffffff"
   id="base"
   showgrid="false"
   inkscape:zoom="1.1616212"
   inkscape:cx="138.16896"
   inkscape:cy="188.216"
   inkscape:window-x="0"
   inkscape:window-y="0"
   inkscape:current-layer="svg2481" />
	<style
   type="text/css"
   id="style2483">
	
		@font-face{font-family:'Times-Roman';src:url(27FF5618.cef)}
	
	</style>
	
<g
   transform="matrix(1.5682112,0,0,1.5682112,-12.542156,-44.866447)"
   style="overflow:visible"
   id="g2502">
			<path
   id="path2504"
   d="M 203.52,105.374 C 202.219,94.316 196.366,83.909 185.958,79.356 C 182.706,78.055 178.804,76.754 174.901,76.754 C 172.95,77.405 170.347,76.754 168.396,77.405 C 167.095,78.055 165.143,78.055 163.842,78.706 C 162.541,79.357 161.24,80.007 159.289,80.657 C 152.134,83.909 145.629,88.463 143.678,96.268 C 143.028,100.171 144.328,104.074 146.28,107.976 C 153.435,118.383 163.191,125.538 174.25,131.393 C 175.551,132.044 177.502,132.694 178.803,133.345 C 181.405,133.995 184.006,134.646 186.609,134.646 C 191.162,133.996 195.065,132.695 198.317,129.442 C 199.618,127.491 200.919,125.539 202.219,123.588 C 202.869,121.636 203.52,120.336 204.17,118.384 C 204.17,113.83 204.82,109.927 203.52,105.374 z"
   style="fill:#403458;stroke:#241849;stroke-width:6.50449991" />
			<path
   id="path2506"
   d="M 241.246,143.1 C 234.092,102.121 224.334,59.842 195.715,26.018 C 193.764,24.066 191.161,22.766 189.21,20.814 C 185.307,18.212 181.404,16.261 176.852,14.96 C 173.6,14.31 170.347,14.31 167.095,14.96 C 165.143,15.61 162.541,16.261 160.59,17.562 C 158.639,18.863 156.688,20.814 155.386,22.766 C 144.328,44.231 129.368,60.493 110.505,75.453 C 100.748,82.608 93.593,94.316 100.098,106.024 C 103.35,111.228 107.253,114.48 112.456,117.732 C 117.66,120.334 122.213,121.635 127.416,124.237 C 134.571,128.139 141.076,132.043 148.23,137.246 C 154.734,142.45 160.588,148.304 166.443,154.158 C 176.85,163.263 187.908,169.769 200.266,174.972 C 202.217,175.622 204.168,176.273 206.12,176.923 C 214.577,180.175 223.032,179.525 230.838,175.622 C 231.488,174.972 232.79,174.321 234.091,173.671 C 243.848,166.516 244.498,153.507 241.246,143.1 z M 192.463,156.759 C 181.404,150.905 173.6,142.449 163.192,134.644 C 162.542,133.994 161.891,132.693 161.241,132.042 C 150.834,123.586 139.776,118.382 128.068,110.577 C 123.515,107.325 120.913,102.772 120.913,97.568 C 120.913,85.86 133.271,80.006 141.727,72.851 C 151.484,64.395 158.639,55.289 166.444,45.532 C 178.152,37.727 191.812,47.484 197.666,58.541 C 198.967,60.493 199.617,63.094 200.918,65.045 C 206.772,78.705 210.675,91.714 214.578,106.024 C 216.529,113.83 217.18,121.635 218.48,129.441 C 219.13,134.645 219.781,139.848 219.13,145.052 C 218.48,147.654 217.829,149.606 217.179,152.207 C 216.529,154.158 214.577,156.109 213.277,157.41 C 206.771,161.962 198.967,160.662 192.463,156.759 z"
   style="fill:#403458;stroke:#241849;stroke-width:6.50449991" />
			<path
   id="path2508"
   d="M 250.353,130.091 C 249.703,129.441 249.052,128.139 249.052,127.489 C 238.645,85.209 226.936,42.28 194.414,11.708 C 191.161,9.106 187.259,7.155 183.355,5.203 C 180.753,3.902 177.501,3.902 174.9,3.252 C 172.949,3.252 171.648,3.252 169.696,3.252 C 165.794,4.553 161.89,5.854 159.289,9.106 C 156.037,14.31 154.085,19.514 152.134,24.717 C 148.231,33.823 142.377,41.629 135.873,49.434 C 128.067,58.54 118.961,65.045 111.156,74.802 C 105.952,82.608 105.302,92.364 112.457,99.519 C 113.107,100.169 112.457,100.82 113.107,101.471 C 117.01,104.723 120.913,107.975 125.466,110.577 C 141.727,117.732 156.037,127.489 169.046,139.197 C 178.803,148.954 190.511,156.759 202.869,162.613 C 206.771,164.565 210.024,165.216 213.928,167.167 C 223.684,170.42 235.393,169.77 243.848,162.613 C 246.45,160.662 247.75,158.06 249.052,155.459 C 250.353,152.857 251.003,149.605 251.654,147.003 C 252.304,141.148 251.653,135.945 250.353,130.091 z M 202.869,148.303 C 202.219,147.653 201.568,147.002 200.918,146.352 C 198.316,145.051 195.715,144.401 193.113,142.449 C 175.551,129.44 161.24,116.431 142.377,106.024 C 133.921,100.82 126.766,91.064 131.319,81.307 C 131.969,80.006 132.62,78.705 133.921,77.404 C 137.824,73.501 141.727,70.249 146.28,66.346 C 152.134,60.492 157.988,54.638 161.89,47.483 C 162.54,46.833 163.191,46.182 163.841,45.531 C 167.094,36.425 176.851,27.969 186.608,33.173 C 187.909,33.823 189.86,34.474 191.161,35.775 C 204.82,47.483 210.675,64.395 217.18,80.656 C 217.83,81.957 217.18,83.258 217.83,84.559 C 223.684,100.82 228.237,117.081 228.888,133.994 C 228.888,137.896 226.936,141.149 224.985,145.052 C 224.335,147.003 221.733,147.654 220.432,148.955 C 218.481,150.906 215.879,150.256 213.278,150.906 C 210.024,150.906 206.121,149.605 202.869,148.303 z"
   style="fill:#8069b0;stroke:#483093;stroke-width:6.50449991" />
			<path
   id="path2510"
   d="M 115.059,191.884 C 117.01,201.64 122.214,212.048 131.32,217.251 C 134.572,218.552 138.475,219.202 141.727,220.503 C 144.979,221.153 147.581,219.853 150.833,219.853 C 152.134,219.853 154.085,219.203 155.386,218.552 C 161.89,216.601 167.094,212.698 171.648,208.145 C 172.949,206.844 173.599,205.543 174.25,204.243 C 175.551,202.291 175.551,199.689 175.551,197.738 C 173.6,184.079 161.24,177.574 151.484,169.769 C 148.882,168.467 146.931,166.516 144.329,165.866 C 141.727,165.216 139.125,163.915 136.524,163.263 C 133.922,163.263 131.971,163.263 129.369,163.263 C 126.117,163.914 123.515,165.866 120.913,167.817 C 114.408,174.322 114.408,183.428 115.059,191.884 z"
   style="fill:#403458;stroke:#241849;stroke-width:6.50449991" />
			<path
   id="path2512"
   d="M 77.332,154.808 C 86.438,196.437 94.894,240.667 125.466,273.191 C 131.32,278.394 138.475,281.646 146.28,282.947 C 147.581,282.947 148.882,282.947 150.182,282.947 C 156.687,281.646 161.89,278.394 164.492,273.191 C 174.25,253.027 189.21,238.066 206.121,223.755 C 206.771,223.105 208.073,223.105 208.724,222.454 C 213.928,216.6 219.782,211.397 221.082,203.591 C 221.732,200.339 221.082,197.737 220.432,194.486 C 219.131,189.933 215.879,186.68 211.976,183.428 C 203.52,177.574 195.065,174.972 186.609,170.419 C 177.503,165.215 169.047,159.36 161.241,152.206 C 146.281,136.595 128.719,124.236 107.904,119.683 C 101.4,117.731 94.245,118.382 88.39,121.634 C 87.089,122.935 85.138,123.586 83.837,124.886 C 79.935,128.788 77.333,133.342 76.682,138.545 C 76.031,143.75 76.682,149.605 77.332,154.808 z M 126.767,140.498 C 136.524,147.002 146.931,154.158 155.387,163.263 C 160.591,167.817 165.143,171.07 170.998,174.972 C 172.3,175.622 173.601,175.622 174.251,176.273 C 178.804,180.175 184.007,181.476 189.211,185.379 C 195.065,189.933 199.618,195.786 198.317,203.591 C 197.667,206.844 195.715,209.445 193.764,212.048 C 180.754,223.105 167.745,232.212 156.688,247.172 C 156.038,248.473 154.736,250.424 152.785,251.726 C 147.581,255.628 141.077,256.279 135.223,253.027 C 115.059,240.017 111.807,215.3 105.303,194.486 C 102.701,184.729 101.4,174.972 100.099,164.565 C 100.099,161.312 98.798,158.711 99.448,155.459 C 100.099,153.508 100.099,151.557 100.099,149.605 C 100.749,148.303 101.4,147.002 102.05,145.051 C 104.652,140.498 109.205,137.245 114.408,137.245 C 118.961,137.246 122.864,138.546 126.767,140.498 z"
   style="fill:#403458;stroke:#241849;stroke-width:6.50449991" />
			<path
   id="path2514"
   d="M 68.876,167.167 C 74.08,189.282 79.934,210.748 89.04,231.563 C 90.992,236.116 93.593,240.668 95.545,245.222 C 100.749,255.629 107.253,264.735 113.757,274.493 C 115.709,277.095 118.31,279.046 120.262,281.647 C 121.563,282.948 123.514,284.249 124.815,285.55 C 127.417,288.152 130.669,290.103 133.921,291.404 C 136.523,292.706 139.125,293.356 142.377,294.007 C 144.979,294.007 146.93,294.007 149.532,294.007 C 152.134,293.357 154.736,292.056 157.338,290.754 C 160.59,288.803 162.541,284.9 163.192,281.648 C 170.998,258.882 187.91,243.271 204.821,227.01 C 211.976,219.855 215.229,208.147 208.074,199.04 C 203.52,193.186 198.317,189.283 191.813,186.031 C 182.055,181.477 173.6,176.925 164.493,169.77 C 155.387,163.264 148.232,155.459 139.126,148.304 C 131.971,143.101 124.816,138.547 116.36,134.645 C 115.059,133.995 114.408,134.645 113.108,133.995 C 100.099,126.84 82.537,125.539 72.78,137.897 C 72.13,139.198 70.829,140.499 70.178,141.8 C 67.576,148.304 66.926,154.809 67.576,161.313 C 67.575,163.263 68.226,165.215 68.876,167.167 z M 115.709,149.605 C 135.222,158.71 149.532,176.273 169.046,186.68 C 178.803,192.534 190.511,199.689 189.21,212.048 C 188.56,215.3 187.259,217.902 185.307,219.853 C 172.299,232.212 159.94,243.269 151.484,258.88 C 148.232,264.083 142.378,266.686 136.524,265.384 C 126.767,263.433 120.913,255.628 116.36,247.822 C 102.05,223.104 94.895,197.737 90.342,169.768 C 90.342,167.816 90.342,165.214 90.342,163.262 C 90.992,160.01 91.643,156.758 92.944,154.157 C 97.496,146.352 108.554,144.401 115.709,149.605 z"
   style="fill:#8069b0;stroke:#483093;stroke-width:6.50449991" />
			<path
   id="path2516"
   d="M 111.592,99.234 C 100.626,101.157 90.566,107.589 86.607,118.237 C 85.492,121.557 84.413,125.527 84.634,129.424 C 85.393,131.336 84.891,133.97 85.651,135.882 C 86.374,137.144 86.484,139.092 87.207,140.354 C 87.93,141.616 88.653,142.878 89.413,144.79 C 93.064,151.749 97.977,157.987 105.88,159.495 C 109.814,159.924 113.636,158.404 117.422,156.236 C 127.409,148.505 134.002,138.36 139.222,126.989 C 139.798,125.653 140.337,123.668 140.913,122.333 C 141.415,119.699 141.918,117.064 141.771,114.466 C 140.865,109.957 139.346,106.134 135.915,103.07 C 133.894,101.882 131.872,100.693 129.85,99.505 C 127.865,98.965 126.53,98.389 124.545,97.85 C 119.998,98.108 116.064,97.679 111.592,99.234 z"
   style="fill:#403458;stroke:#241849;stroke-width:6.50449991" />
			<path
   id="path2518"
   d="M 147.128,59.439 C 106.619,68.896 64.958,81.024 32.804,111.507 C 30.966,113.566 29.814,116.236 27.976,118.295 C 25.599,122.338 23.871,126.345 22.829,130.964 C 22.363,134.248 22.547,137.495 23.38,140.705 C 24.14,142.617 24.936,145.177 26.345,147.052 C 27.754,148.927 29.812,150.765 31.834,151.953 C 53.889,161.781 70.969,175.8 86.97,193.788 C 94.664,203.125 106.758,209.607 118.08,202.453 C 123.092,198.912 126.119,194.832 129.072,189.453 C 131.376,184.11 132.418,179.491 134.721,174.148 C 138.214,166.785 141.743,160.07 146.534,152.632 C 151.362,145.845 156.876,139.67 162.39,133.494 C 170.894,122.59 176.764,111.182 181.261,98.55 C 181.801,96.565 182.34,94.58 182.879,92.595 C 185.65,83.969 184.523,75.564 180.185,67.991 C 179.499,67.378 178.777,66.116 178.054,64.854 C 170.359,55.519 157.334,55.604 147.128,59.439 z M 163.52,107.373 C 158.299,118.744 150.298,127.014 143.093,137.845 C 142.48,138.531 141.218,139.254 140.605,139.94 C 132.751,150.808 128.179,162.142 121.047,174.273 C 118.057,179.002 113.658,181.857 108.463,182.15 C 96.774,182.811 90.231,170.803 82.61,162.765 C 73.617,153.501 64.121,146.871 53.94,139.629 C 45.486,128.38 54.456,114.191 65.166,107.723 C 67.041,106.314 69.602,105.518 71.476,104.109 C 84.783,97.493 97.551,92.862 111.618,88.158 C 119.301,85.769 127.057,84.679 134.777,82.94 C 139.936,81.997 145.094,81.053 150.326,81.409 C 152.96,81.911 154.945,82.451 157.579,82.953 C 159.563,83.493 161.622,85.33 162.995,86.556 C 167.906,92.792 167.049,100.659 163.52,107.373 z"
   style="fill:#403458;stroke:#241849;stroke-width:6.50449991" />
			<path
   id="path2520"
   d="M 133.625,51.082 C 133.012,51.768 131.75,52.491 131.101,52.527 C 89.477,65.305 47.277,79.418 18.591,113.614 C 16.177,117.008 14.449,121.014 12.721,125.021 C 11.57,127.692 11.753,130.939 11.25,133.574 C 11.36,135.522 11.434,136.821 11.544,138.769 C 13.063,142.592 14.583,146.415 17.976,148.83 C 23.355,151.783 28.66,153.437 33.966,155.092 C 43.278,158.475 51.401,163.879 59.561,169.932 C 69.094,177.211 76.102,185.936 86.284,193.178 C 94.371,197.932 104.149,198.031 110.888,190.483 C 111.501,189.797 112.187,190.41 112.8,189.723 C 115.827,185.643 118.854,181.563 121.194,176.871 C 127.42,160.231 136.353,145.393 147.308,131.744 C 156.498,121.452 163.63,109.322 168.778,96.653 C 170.505,92.646 170.971,89.362 172.699,85.356 C 175.395,75.431 174.085,63.778 166.464,55.74 C 164.369,53.253 161.698,52.101 159.026,50.948 C 156.355,49.797 153.071,49.331 150.437,48.828 C 144.555,48.509 139.396,49.452 133.625,51.082 z M 154.49,97.46 C 153.877,98.146 153.264,98.833 152.652,99.519 C 151.5,102.19 150.998,104.824 149.196,107.532 C 137.199,125.801 125.019,140.822 115.694,160.242 C 110.976,168.978 101.639,176.674 91.64,172.678 C 90.305,172.103 88.969,171.527 87.597,170.301 C 83.48,166.625 80.013,162.912 75.859,158.586 C 69.684,153.072 63.508,147.558 56.145,144.065 C 55.459,143.452 54.773,142.84 54.086,142.227 C 44.811,139.494 35.817,130.23 40.462,120.195 C 41.038,118.86 41.577,116.875 42.803,115.502 C 53.721,101.204 70.275,94.404 86.143,86.992 C 87.405,86.269 88.741,86.845 90.003,86.122 C 105.908,79.359 121.886,73.895 138.734,72.291 C 142.63,72.071 145.987,73.835 149.994,75.563 C 151.979,76.102 152.775,78.663 154.147,79.888 C 156.206,81.726 155.703,84.361 156.499,86.921 C 156.683,90.169 155.605,94.14 154.49,97.46 z"
   style="fill:#8069b0;stroke:#483093;stroke-width:6.50449991" />
			<path
   id="path2522"
   d="M 202.958,182.67 C 212.589,180.171 222.686,174.388 227.367,165.002 C 228.482,161.682 228.911,157.749 230.026,154.428 C 230.492,151.145 229.047,148.62 228.863,145.373 C 228.789,144.074 228.029,142.163 227.306,140.9 C 224.991,134.516 220.8,129.542 215.997,125.253 C 214.625,124.027 213.29,123.451 211.954,122.876 C 209.933,121.688 207.335,121.834 205.386,121.944 C 191.859,124.664 186.063,137.369 178.821,147.551 C 177.67,150.221 175.831,152.28 175.328,154.915 C 174.826,157.55 173.674,160.221 173.172,162.854 C 173.318,165.452 173.429,167.401 173.576,169.999 C 174.408,173.209 176.504,175.696 178.599,178.184 C 185.461,184.311 194.553,183.796 202.958,182.67 z"
   style="fill:#403458;stroke:#241849;stroke-width:6.50449991" />
			<path
   id="path2524"
   d="M 168.071,222.429 C 209.119,210.988 252.801,200.048 283.547,167.689 C 288.411,161.55 291.254,154.224 292.113,146.357 C 292.039,145.058 291.966,143.759 291.892,142.461 C 290.226,136.04 286.685,131.028 281.343,128.725 C 260.659,120.122 244.878,106.03 229.637,89.954 C 228.95,89.341 228.877,88.042 228.191,87.43 C 222.053,82.565 216.527,77.014 208.661,76.156 C 205.377,75.69 202.816,76.486 199.606,77.32 C 195.133,78.876 192.07,82.306 189.044,86.386 C 183.676,95.159 181.557,103.748 177.488,112.448 C 172.806,121.834 167.439,130.607 160.736,138.803 C 145.995,154.62 134.648,172.852 131.277,193.891 C 129.696,200.495 130.749,207.602 134.327,213.263 C 135.699,214.489 136.459,216.4 137.831,217.625 C 141.948,221.301 146.641,223.642 151.873,223.997 C 157.104,224.352 162.912,223.373 168.071,222.429 z M 150.993,173.882 C 156.936,163.773 163.492,152.979 172.107,144.022 C 176.359,138.57 179.349,133.84 182.915,127.775 C 183.49,126.439 183.418,125.14 184.03,124.454 C 187.67,119.688 188.675,114.419 192.277,109.003 C 196.492,102.901 202.08,98.025 209.947,98.883 C 213.23,99.348 215.937,101.15 218.646,102.951 C 230.419,115.315 240.246,127.789 255.807,137.984 C 257.142,138.56 259.163,139.749 260.574,141.624 C 264.763,146.599 265.78,153.056 262.864,159.084 C 251.013,179.95 226.519,184.593 206.106,192.262 C 196.511,195.41 186.843,197.261 176.527,199.147 C 173.28,199.331 170.756,200.777 167.472,200.31 C 165.487,199.771 163.538,199.881 161.59,199.992 C 160.255,199.416 158.919,198.84 156.934,198.301 C 152.241,195.961 148.737,191.598 148.443,186.403 C 148.187,181.859 149.266,177.888 150.993,173.882 z"
   style="fill:#403458;stroke:#241849;stroke-width:6.50449991" />
			<path
   id="path2526"
   d="M 180.888,230.173 C 202.674,223.73 223.774,216.673 244.041,206.405 C 248.477,204.2 252.875,201.345 257.311,199.14 C 267.409,193.358 276.132,186.349 285.506,179.304 C 287.994,177.209 289.795,174.501 292.283,172.407 C 293.508,171.034 294.697,169.012 295.922,167.64 C 298.373,164.895 300.137,161.537 301.252,158.217 C 302.404,155.546 302.907,152.912 303.373,149.628 C 303.227,147.03 303.115,145.082 302.969,142.484 C 302.173,139.923 300.728,137.399 299.281,134.875 C 297.149,131.738 293.142,130.01 289.859,129.544 C 266.689,123.037 250.148,107.033 232.958,91.066 C 225.41,84.326 213.537,81.741 204.85,89.398 C 199.262,94.274 195.661,99.69 192.78,106.368 C 188.786,116.366 184.718,125.066 178.088,134.561 C 172.109,144.02 164.719,151.604 158.089,161.101 C 153.298,168.538 149.156,175.939 145.737,184.601 C 145.161,185.937 145.847,186.549 145.271,187.884 C 138.862,201.277 138.555,218.884 151.444,227.927 C 152.779,228.503 154.152,229.729 155.487,230.305 C 162.128,232.535 168.658,232.818 175.116,231.801 C 177.064,231.693 178.977,230.933 180.888,230.173 z M 160.709,184.408 C 168.699,164.412 185.426,149.133 194.715,129.063 C 200.008,118.991 206.49,106.898 218.903,107.499 C 222.187,107.965 224.857,109.117 226.916,110.955 C 239.99,123.246 251.728,134.96 267.79,142.521 C 273.169,145.475 276.098,151.172 275.129,157.09 C 273.732,166.942 266.27,173.227 258.733,178.214 C 234.863,193.897 209.941,202.472 182.273,208.597 C 180.325,208.707 177.727,208.854 175.779,208.964 C 172.496,208.498 169.211,208.032 166.541,206.881 C 158.49,202.775 155.918,191.845 160.709,184.408 z"
   style="fill:#8069b0;stroke:#483093;stroke-width:6.50449991" />
			<g
   id="g2528">
				<path
   id="path2530"
   d="M 211.325,94.316 C 210.024,92.364 210.024,90.413 209.374,88.462 C 205.471,78.705 198.316,69.599 187.259,67.648 C 184.006,66.998 180.104,67.648 176.852,67.648 C 174.901,68.298 172.299,68.949 170.347,69.599 C 167.745,71.551 164.493,72.851 161.891,74.803 C 160.59,76.104 159.289,76.754 157.989,78.055 C 157.339,79.356 156.038,80.006 155.387,81.307 C 154.737,83.258 152.785,85.209 152.785,87.161 C 152.785,90.413 152.135,94.316 154.086,97.569 C 156.038,100.171 157.338,102.773 159.29,105.374 C 160.591,106.024 161.892,107.325 162.542,108.626 C 163.192,109.276 163.843,109.276 164.493,109.927 C 165.143,110.578 165.143,111.228 165.795,111.879 C 176.853,120.335 190.512,131.392 204.171,122.936 C 204.821,122.286 206.122,120.985 207.424,119.684 C 213.277,112.529 212.627,102.772 211.325,94.316 z"
   style="fill:#8069b0;stroke:#483093;stroke-width:6.50449991" />
				<path
   id="path2532"
   d="M 107.903,202.941 C 111.155,212.699 115.709,222.455 125.465,227.659 C 129.367,229.61 133.27,230.262 137.823,230.262 C 141.726,229.611 145.628,228.96 148.881,227.659 C 152.133,225.708 156.036,223.756 159.288,221.154 C 159.938,219.853 161.239,219.203 162.54,217.902 C 174.899,202.291 156.686,187.331 144.328,179.525 C 141.076,177.574 137.824,174.972 134.571,173.671 C 131.969,172.37 129.367,172.37 126.766,171.72 C 124.164,171.07 122.213,172.37 119.611,172.37 C 117.009,173.02 115.058,174.321 113.107,176.272 C 106.603,183.428 105.952,193.835 107.903,202.941 z"
   style="fill:#8069b0;stroke:#483093;stroke-width:6.50449991" />
				<path
   id="path2534"
   d="M 100.111,92.066 C 98.236,93.475 96.288,93.585 94.376,94.344 C 84.855,98.792 76.168,106.449 74.844,117.599 C 74.378,120.883 75.248,124.743 75.431,127.99 C 76.191,129.902 76.987,132.462 77.746,134.374 C 79.841,136.862 81.324,140.035 83.419,142.522 C 84.791,143.748 85.514,145.01 86.886,146.235 C 88.221,146.811 88.945,148.073 90.28,148.649 C 92.265,149.189 94.323,151.026 96.271,150.916 C 99.519,150.732 103.452,151.161 106.588,149.03 C 109.075,146.934 111.6,145.488 114.087,143.394 C 114.663,142.059 115.888,140.686 117.15,139.963 C 117.763,139.277 117.726,138.628 118.339,137.941 C 118.951,137.255 119.601,137.218 120.214,136.532 C 128.032,125.014 138.301,110.753 129.088,97.592 C 128.402,96.98 127.029,95.754 125.657,94.529 C 118.185,89.089 108.48,90.29 100.111,92.066 z"
   style="fill:#8069b0;stroke:#483093;stroke-width:6.50449991" />
				<path
   id="path2536"
   d="M 214.402,189.189 C 223.959,185.392 233.443,180.294 238.088,170.259 C 239.817,166.253 240.244,162.32 239.988,157.774 C 239.117,153.915 238.248,150.054 236.765,146.881 C 234.633,143.744 232.464,139.958 229.683,136.858 C 228.348,136.282 227.624,135.02 226.253,133.795 C 209.969,122.337 196.061,141.365 188.966,154.145 C 187.2,157.502 184.786,160.897 183.672,164.217 C 182.52,166.888 182.667,169.486 182.164,172.119 C 181.661,174.754 183.07,176.629 183.218,179.226 C 184.014,181.787 185.423,183.662 187.482,185.499 C 194.992,191.589 205.42,191.652 214.402,189.189 z"
   style="fill:#8069b0;stroke:#483093;stroke-width:6.50449991" />
			</g>
		</g></svg>