<?xml version="1.0" encoding="UTF-8" standalone="no"?>
<!-- Generator: Adobe Illustrator 10, SVG Export Plug-In . SVG Version: 3.0.0 Build 76)  -->
<svg
   xmlns:dc="http://purl.org/dc/elements/1.1/"
   xmlns:cc="http://creativecommons.org/ns#"
   xmlns:rdf="http://www.w3.org/1999/02/22-rdf-syntax-ns#"
   xmlns:svg="http://www.w3.org/2000/svg"
   xmlns="http://www.w3.org/2000/svg"
   xmlns:sodipodi="http://sodipodi.sourceforge.net/DTD/sodipodi-0.dtd"
   xmlns:inkscape="http://www.inkscape.org/namespaces/inkscape"
   width="299.2915"
   height="309.8205"
   viewBox="0 0 468.311 387.853"
   style="overflow:visible"
   xml:space="preserve"
   id="svg2545"
   sodipodi:version="0.32"
   inkscape:version="0.46"
   sodipodi:docname="KnotD.svg"
   inkscape:output_extension="org.inkscape.output.svg.inkscape"
   version="1.0"><metadata
   id="metadata2603"><rdf:RDF><cc:Work
       rdf:about=""><dc:format>image/svg+xml</dc:format><dc:type
         rdf:resource="http://purl.org/dc/dcmitype/StillImage" /></cc:Work></rdf:RDF></metadata><defs
   id="defs2601"><inkscape:perspective
   sodipodi:type="inkscape:persp3d"
   inkscape:vp_x="0 : 193.9265 : 1"
   inkscape:vp_y="0 : 1000 : 0"
   inkscape:vp_z="468.311 : 193.9265 : 1"
   inkscape:persp3d-origin="234.1555 : 129.28433 : 1"
   id="perspective2605" />
		
		
	</defs><sodipodi:namedview
   inkscape:window-height="670"
   inkscape:window-width="891"
   inkscape:pageshadow="2"
   inkscape:pageopacity="0.0"
   guidetolerance="10.0"
   gridtolerance="10.0"
   objecttolerance="10.0"
   borderopacity="1.0"
   bordercolor="#666666"
   pagecolor="#ffffff"
   id="base"
   showgrid="false"
   inkscape:zoom="1.1616212"
   inkscape:cx="138.16896"
   inkscape:cy="193.9265"
   inkscape:window-x="-125"
   inkscape:window-y="0"
   inkscape:current-layer="svg2545" />
	<style
   type="text/css"
   id="style2547">
	
		@font-face{font-family:'Times-Roman';src:url(C02CE15B.cef)}
	
	</style>
	
<g
   transform="matrix(1.564732,0,0,1.564732,-11.253155,-48.466134)"
   style="overflow:visible"
   id="g2566">
			
				<path
   id="path2568"
   d="M 151.928,117.133 C 148.442,114.725 144.856,112.4 141.118,110.168 C 138.973,113.443 136.826,116.624 134.692,119.748 C 129.732,127.01 124.852,133.994 120.279,141.249 C 117.903,145.019 115.615,148.87 113.437,152.869 C 116.817,154.693 120.059,156.749 123.218,158.952 C 130.333,163.916 137.039,169.608 144.011,175.004 C 147.634,177.808 151.331,180.528 155.194,183.025 C 156.756,179.389 158.595,175.897 160.611,172.496 C 165.017,165.062 170.265,158.048 175.294,150.838 C 177.756,147.308 180.164,143.728 182.396,140.03 C 179.175,137.617 176.044,135.212 172.958,132.829 C 165.934,127.404 159.123,122.104 151.928,117.133 z M 151.527,161.901 C 151.019,162.701 150.523,163.501 150.03,164.3 C 144.251,159.397 138.834,154.153 132.48,149.228 C 131.638,148.624 130.796,148.03 129.952,147.445 C 133.221,142.341 136.76,137.404 140.553,132.614 C 142.262,130.675 143.899,128.671 145.463,126.612 C 151.336,130.688 156.949,135.137 162.339,139.924 C 163.476,141.045 164.64,142.137 165.825,143.205 C 161.189,149.372 156.167,155.163 151.527,161.901 z"
   style="fill:#403458;fill-rule:evenodd;stroke:#241849;stroke-width:6.50449991;stroke-linecap:round;stroke-linejoin:round" />
			<path
   id="path2570"
   d="M 204.323,94.766 C 203.01,92.825 202.996,90.872 202.334,88.925 C 198.367,79.195 191.152,70.135 180.082,68.257 C 176.825,67.628 172.927,68.304 169.675,68.325 C 167.729,68.988 165.131,69.656 163.184,70.319 C 160.594,72.287 157.351,73.609 154.762,75.578 C 153.47,76.888 152.173,77.547 150.881,78.856 C 150.239,80.161 148.943,80.82 148.3,82.125 C 147.662,84.081 145.724,86.045 145.737,87.996 C 145.758,91.249 145.133,95.156 147.106,98.395 C 149.074,100.983 150.392,103.577 152.361,106.166 C 153.666,106.808 154.975,108.1 155.634,109.396 C 156.289,110.042 156.939,110.039 157.594,110.684 C 158.249,111.33 158.253,111.981 158.907,112.627 C 170.02,121.009 183.753,131.978 197.355,123.432 C 198.001,122.778 199.293,121.468 200.586,120.158 C 206.395,112.966 205.68,103.213 204.323,94.766 z"
   style="fill:#403458;stroke:#241849;stroke-width:6.50449991" />
			<path
   id="path2572"
   d="M 101.619,204.07 C 104.935,213.804 109.553,223.531 119.343,228.671 C 123.259,230.596 127.166,231.221 131.718,231.192 C 135.616,230.516 139.514,229.839 142.759,228.517 C 145.998,226.544 149.888,224.567 153.123,221.945 C 153.765,220.639 155.061,219.98 156.354,218.672 C 168.61,202.98 150.299,188.14 137.89,180.416 C 134.625,178.485 131.355,175.905 128.095,174.626 C 125.485,173.343 122.883,173.359 120.277,172.726 C 117.671,172.093 115.728,173.407 113.127,173.423 C 110.529,174.091 108.586,175.405 106.648,177.368 C 100.189,184.565 99.607,194.976 101.619,204.07 z"
   style="fill:#403458;stroke:#241849;stroke-width:6.50449991" />
			<path
   id="path2574"
   d="M 208.023,189.617 C 217.555,185.757 227.005,180.598 231.584,170.533 C 233.285,166.514 233.689,162.579 233.402,158.035 C 232.506,154.181 231.611,150.327 230.108,147.163 C 227.956,144.041 225.762,140.268 222.961,137.187 C 221.621,136.62 220.891,135.362 219.51,134.146 C 203.153,122.795 189.369,141.915 182.359,154.741 C 180.616,158.109 178.225,161.519 177.131,164.846 C 175.996,167.525 176.16,170.121 175.676,172.759 C 175.191,175.397 176.612,177.262 176.776,179.859 C 177.588,182.415 179.01,184.28 181.081,186.104 C 188.631,192.145 199.059,192.138 208.023,189.617 z"
   style="fill:#403458;stroke:#241849;stroke-width:6.50449991" />
			<g
   id="g2576">
				
					<path
   id="path2578"
   d="M 302.211,154.002 C 301.399,151.445 299.936,148.932 298.474,146.416 C 296.322,143.294 292.304,141.592 289.018,141.148 C 269.719,135.865 254.959,123.986 240.592,111.02 C 231.092,78.564 218.186,47.492 192.799,23.941 C 189.53,21.36 185.615,19.435 181.699,17.509 C 179.089,16.225 175.837,16.247 173.23,15.613 C 171.279,15.626 169.978,15.634 168.027,15.647 C 164.132,16.973 160.239,18.3 157.659,21.569 C 154.441,26.794 152.524,32.01 150.607,37.226 C 146.764,46.358 140.962,54.202 134.509,62.049 C 134.115,62.514 133.717,62.968 133.317,63.421 C 132.969,63.518 132.625,63.609 132.273,63.71 C 131.665,64.4 130.408,65.132 129.758,65.173 C 88.219,78.224 46.113,92.613 17.653,126.998 C 15.261,130.408 13.56,134.426 11.859,138.443 C 10.725,141.122 10.929,144.367 10.444,147.005 C 10.568,148.952 10.65,150.251 10.772,152.198 C 12.316,156.011 13.86,159.824 17.271,162.216 C 22.669,165.134 27.985,166.754 33.301,168.373 C 42.635,171.694 50.794,177.044 58.993,183.044 C 63.648,186.551 67.71,190.402 71.83,194.259 C 76.348,211.408 81.605,228.153 88.876,244.479 C 90.857,249.019 93.489,253.555 95.47,258.095 C 100.742,268.467 107.306,277.531 113.875,287.244 C 115.843,289.833 118.458,291.767 120.426,294.356 C 121.736,295.648 123.696,296.936 125.005,298.229 C 127.624,300.813 130.889,302.743 134.15,304.022 C 136.76,305.306 139.366,305.94 142.623,306.568 C 145.225,306.551 147.176,306.539 149.778,306.521 C 152.375,305.854 154.968,304.537 157.562,303.217 C 160.8,301.245 162.726,297.329 163.355,294.073 C 171.011,271.257 187.82,255.535 204.625,239.162 C 206.353,237.412 207.846,235.391 209.016,233.209 C 220.828,228.941 232.403,224.125 243.707,218.304 C 248.129,216.07 252.509,213.186 256.93,210.951 C 266.989,205.102 275.667,198.037 284.994,190.93 C 287.467,188.819 289.251,186.099 291.724,183.988 C 292.941,182.607 294.116,180.578 295.332,179.198 C 297.765,176.437 299.507,173.068 300.6,169.741 C 301.735,167.062 302.22,164.425 302.663,161.137 C 302.498,158.545 302.375,156.599 302.211,154.002 z M 274.469,168.789 C 273.136,178.649 265.715,184.983 258.213,190.019 C 242.528,200.472 226.363,207.831 209.244,213.442 C 202.543,215.637 195.695,217.565 188.674,219.304 C 188.988,220.872 189.088,222.535 188.914,224.31 C 188.285,227.566 187.001,230.176 185.062,232.141 C 180.703,236.337 176.419,240.387 172.333,244.511 C 164.301,252.615 157.032,261.007 151.497,271.389 C 148.279,276.614 142.442,279.254 136.58,277.992 C 126.811,276.105 120.906,268.338 116.301,260.563 C 106.554,243.979 100.053,227.078 95.399,209.275 C 93.351,201.441 91.658,193.434 90.207,185.202 C 89.16,184.734 88.108,184.182 87.03,183.232 C 82.889,179.584 79.397,175.893 75.216,171.595 C 72.501,169.202 69.785,166.81 66.972,164.586 C 63.35,161.724 59.565,159.142 55.407,157.203 C 54.717,156.596 54.027,155.987 53.336,155.379 C 44.043,152.708 34.989,143.503 39.568,133.438 C 40.135,132.099 40.661,130.111 41.877,128.731 C 52.7,114.36 69.208,107.452 85.027,99.936 C 86.284,99.205 87.624,99.772 88.881,99.041 C 95.147,96.327 101.426,93.822 107.768,91.673 C 117.478,88.381 127.334,85.927 137.519,84.889 C 137.746,84.875 137.97,84.869 138.193,84.868 C 140.351,82.932 142.594,81.008 145.026,78.895 C 149.801,74.057 154.573,69.217 158.263,63.666 C 159.068,62.457 159.823,61.215 160.513,59.93 C 161.159,59.275 161.805,58.62 162.451,57.966 C 165.644,48.838 175.345,40.319 185.136,45.458 C 186.442,46.1 188.397,46.737 189.705,48.03 C 203.441,59.647 209.406,76.521 216.017,92.738 C 216.677,94.036 216.035,95.341 216.694,96.637 C 216.716,96.696 216.737,96.756 216.758,96.816 C 219.814,105.143 222.518,113.475 224.53,121.9 C 225.03,122.228 225.509,122.581 225.953,122.971 C 234.02,130.456 241.587,137.724 249.948,143.948 C 255.219,147.872 260.803,151.386 267.034,154.268 C 272.433,157.186 275.398,162.864 274.469,168.789 z"
   style="fill:#403458;fill-rule:evenodd;stroke:#241849;stroke-width:6.50449991;stroke-linecap:round;stroke-linejoin:round" />
				<path
   id="path2580"
   d="M 99.028,104.917 C 97.163,106.338 95.215,106.462 93.309,107.233 C 83.818,111.743 75.181,119.458 73.93,130.616 C 73.486,133.903 74.381,137.757 74.586,141.003 C 75.358,142.909 76.171,145.465 76.943,147.371 C 79.054,149.845 80.558,153.008 82.669,155.482 C 84.049,156.698 84.78,157.955 86.161,159.171 C 87.5,159.738 88.231,160.995 89.571,161.563 C 91.559,162.089 93.63,163.914 95.577,163.791 C 98.823,163.587 102.759,163.99 105.882,161.837 C 108.355,159.726 110.87,158.264 113.343,156.152 C 113.91,154.812 115.127,153.432 116.384,152.701 C 116.992,152.012 116.951,151.362 117.559,150.672 C 118.167,149.983 118.816,149.941 119.424,149.25 C 127.166,137.683 137.341,123.354 128.041,110.254 C 127.351,109.646 125.971,108.43 124.59,107.213 C 117.082,101.823 107.385,103.086 99.028,104.917 z"
   style="fill:#403458;stroke:#241849;stroke-width:6.50449991" />
				<g
   id="g2582">
					<g
   id="g2584">
						
							<path
   id="path2586"
   d="M 158.428,116.441 C 154.942,114.033 151.356,111.706 147.618,109.476 C 145.473,112.749 143.326,115.931 141.192,119.054 C 136.232,126.317 131.352,133.301 126.779,140.557 C 124.403,144.327 122.115,148.177 119.937,152.175 C 123.317,154 126.559,156.055 129.718,158.259 C 136.833,163.223 143.539,168.916 150.511,174.311 C 154.134,177.115 157.831,179.835 161.694,182.332 C 163.256,178.695 165.094,175.203 167.111,171.802 C 171.517,164.368 176.765,157.354 181.794,150.145 C 184.256,146.613 186.664,143.034 188.896,139.337 C 185.675,136.924 182.544,134.518 179.458,132.135 C 172.434,126.711 165.623,121.412 158.428,116.441 z M 158.027,161.208 C 157.519,162.008 157.023,162.807 156.53,163.607 C 150.751,158.703 145.334,153.459 138.98,148.533 C 138.138,147.929 137.296,147.337 136.452,146.75 C 139.721,141.648 143.26,136.711 147.053,131.921 C 148.762,129.981 150.399,127.978 151.963,125.918 C 157.836,129.995 163.449,134.443 168.839,139.23 C 169.976,140.352 171.14,141.444 172.325,142.511 C 167.689,148.679 162.666,154.469 158.027,161.208 z"
   style="fill:#8069b0;fill-rule:evenodd;stroke:#483093;stroke-width:6.50449991;stroke-linecap:round;stroke-linejoin:round" />
						
							<path
   id="path2588"
   d="M 302.781,141.639 C 301.968,139.083 300.506,136.57 299.043,134.054 C 296.891,130.932 292.873,129.231 289.586,128.786 C 270.287,123.502 255.529,111.624 241.162,98.658 C 231.66,66.201 218.755,35.13 193.369,11.579 C 190.1,9 186.184,7.074 182.269,5.148 C 179.659,3.864 176.407,3.886 173.801,3.252 C 171.849,3.265 170.548,3.273 168.597,3.286 C 164.703,4.613 160.809,5.939 158.229,9.208 C 155.011,14.433 153.094,19.649 151.177,24.866 C 147.334,33.997 141.531,41.841 135.078,49.689 C 134.685,50.154 134.286,50.608 133.886,51.061 C 133.538,51.158 133.194,51.249 132.842,51.351 C 132.234,52.04 130.976,52.771 130.327,52.812 C 88.788,65.865 46.682,80.254 18.221,114.639 C 15.829,118.049 14.128,122.066 12.427,126.084 C 11.293,128.763 11.498,132.008 11.012,134.646 C 11.135,136.594 11.217,137.892 11.34,139.839 C 12.884,143.652 14.428,147.465 17.838,149.857 C 23.236,152.775 28.552,154.394 33.869,156.014 C 43.203,159.334 51.362,164.685 59.561,170.684 C 64.216,174.191 68.278,178.043 72.397,181.9 C 76.915,199.049 82.172,215.793 89.443,232.12 C 91.424,236.659 94.056,241.196 96.037,245.735 C 101.309,256.108 107.873,265.172 114.442,274.885 C 116.41,277.474 119.025,279.407 120.993,281.996 C 122.303,283.289 124.262,284.577 125.572,285.869 C 128.191,288.454 131.456,290.384 134.717,291.663 C 137.327,292.947 139.933,293.58 143.19,294.209 C 145.792,294.192 147.743,294.18 150.345,294.162 C 152.943,293.495 155.536,292.177 158.129,290.858 C 161.369,288.886 163.294,284.97 163.924,281.714 C 171.578,258.898 188.387,243.175 205.192,226.803 C 206.921,225.053 208.413,223.032 209.583,220.85 C 221.395,216.581 232.97,211.765 244.276,205.945 C 248.696,203.711 253.077,200.827 257.498,198.592 C 267.556,192.743 276.234,185.678 285.561,178.571 C 288.036,176.46 289.819,173.74 292.291,171.628 C 293.508,170.248 294.684,168.219 295.899,166.839 C 298.332,164.078 300.074,160.709 301.168,157.382 C 302.302,154.703 302.787,152.066 303.231,148.778 C 303.068,146.183 302.944,144.236 302.781,141.639 z M 275.038,156.426 C 273.706,166.286 266.285,172.62 258.781,177.656 C 243.097,188.109 226.933,195.468 209.812,201.079 C 203.112,203.274 196.264,205.201 189.242,206.94 C 189.558,208.509 189.658,210.171 189.482,211.946 C 188.853,215.203 187.57,217.813 185.63,219.778 C 181.271,223.974 176.989,228.024 172.901,232.148 C 164.868,240.252 157.6,248.643 152.064,259.026 C 148.846,264.251 143.009,266.89 137.147,265.629 C 127.378,263.741 121.473,255.975 116.868,248.199 C 107.121,231.616 100.62,214.715 95.965,196.912 C 93.917,189.078 92.224,181.071 90.773,172.838 C 89.726,172.371 88.673,171.818 87.596,170.869 C 83.455,167.22 79.964,163.53 75.782,159.232 C 73.067,156.839 70.351,154.447 67.538,152.223 C 63.915,149.361 60.13,146.779 55.973,144.84 C 55.283,144.233 54.593,143.624 53.903,143.016 C 44.61,140.344 35.556,131.14 40.134,121.076 C 40.701,119.736 41.227,117.748 42.444,116.367 C 53.267,101.998 69.777,95.09 85.595,87.572 C 86.852,86.842 88.191,87.409 89.449,86.677 C 95.715,83.964 101.994,81.46 108.336,79.31 C 118.046,76.017 127.902,73.564 138.087,72.527 C 138.314,72.512 138.538,72.506 138.762,72.506 C 140.92,70.568 143.162,68.645 145.595,66.532 C 150.369,61.694 155.142,56.854 158.833,51.303 C 159.637,50.093 160.392,48.852 161.081,47.566 C 161.727,46.912 162.374,46.257 163.02,45.603 C 166.211,36.476 175.913,27.956 185.704,33.095 C 187.009,33.737 188.964,34.375 190.274,35.667 C 204.009,47.286 209.975,64.158 216.586,80.375 C 217.244,81.672 216.603,82.978 217.262,84.274 C 217.283,84.333 217.305,84.392 217.326,84.453 C 220.381,92.781 223.086,101.112 225.098,109.537 C 225.599,109.864 226.077,110.217 226.521,110.608 C 234.587,118.093 242.156,125.36 250.515,131.585 C 255.786,135.51 261.37,139.023 267.601,141.905 C 273.002,144.823 275.967,150.502 275.038,156.426 z"
   style="fill:#8069b0;fill-rule:evenodd;stroke:#483093;stroke-width:6.50449991;stroke-linecap:round;stroke-linejoin:round" />
					</g>
					<g
   id="g2590">
						<path
   id="path2592"
   d="M 210.823,94.074 C 209.51,92.132 209.496,90.179 208.834,88.233 C 204.867,78.502 197.652,69.443 186.582,67.564 C 183.325,66.935 179.427,67.612 176.175,67.632 C 174.229,68.295 171.631,68.963 169.684,69.626 C 167.095,71.595 163.852,72.917 161.262,74.885 C 159.97,76.195 158.673,76.854 157.381,78.163 C 156.739,79.469 155.443,80.127 154.8,81.433 C 154.162,83.388 152.224,85.353 152.237,87.304 C 152.258,90.556 151.633,94.462 153.606,97.701 C 155.574,100.291 156.893,102.884 158.861,105.472 C 160.166,106.115 161.476,107.407 162.134,108.702 C 162.788,109.348 163.439,109.344 164.094,109.99 C 164.749,110.636 164.753,111.287 165.407,111.932 C 176.52,120.315 190.253,131.284 203.856,122.738 C 204.502,122.083 205.794,120.773 207.086,119.465 C 212.895,112.273 212.18,102.521 210.823,94.074 z"
   style="fill:#8069b0;stroke:#483093;stroke-width:6.50449991" />
						<path
   id="path2594"
   d="M 108.119,203.375 C 111.435,213.111 116.053,222.837 125.843,227.977 C 129.759,229.903 133.666,230.528 138.218,230.498 C 142.116,229.821 146.015,229.145 149.259,227.823 C 152.498,225.85 156.388,223.874 159.623,221.25 C 160.265,219.945 161.561,219.287 162.853,217.978 C 175.109,202.287 156.798,187.446 144.389,179.721 C 141.124,177.792 137.854,175.211 134.594,173.932 C 131.984,172.648 129.382,172.665 126.776,172.033 C 124.17,171.399 122.227,172.713 119.626,172.73 C 117.029,173.397 115.086,174.71 113.147,176.675 C 106.689,183.872 106.107,194.283 108.119,203.375 z"
   style="fill:#8069b0;stroke:#483093;stroke-width:6.50449991" />
						<path
   id="path2596"
   d="M 99.598,92.555 C 97.732,93.976 95.785,94.099 93.879,94.871 C 84.388,99.381 75.751,107.095 74.5,118.254 C 74.056,121.541 74.951,125.395 75.156,128.641 C 75.928,130.546 76.741,133.103 77.513,135.009 C 79.624,137.483 81.127,140.646 83.239,143.12 C 84.619,144.336 85.35,145.594 86.731,146.809 C 88.07,147.376 88.801,148.633 90.141,149.201 C 92.129,149.727 94.2,151.552 96.147,151.429 C 99.393,151.224 103.329,151.627 106.451,149.475 C 108.925,147.364 111.439,145.901 113.913,143.79 C 114.48,142.45 115.696,141.07 116.954,140.339 C 117.562,139.649 117.521,138.999 118.13,138.31 C 118.738,137.62 119.387,137.579 119.995,136.889 C 127.737,125.321 137.912,110.992 128.612,97.892 C 127.922,97.284 126.541,96.067 125.161,94.851 C 117.651,89.459 107.955,90.724 99.598,92.555 z"
   style="fill:#8069b0;stroke:#483093;stroke-width:6.50449991" />
						<path
   id="path2598"
   d="M 214.523,188.924 C 224.055,185.063 233.505,179.903 238.084,169.839 C 239.785,165.82 240.189,161.885 239.902,157.341 C 239.006,153.487 238.111,149.633 236.608,146.47 C 234.456,143.347 232.262,139.574 229.461,136.492 C 228.122,135.926 227.391,134.668 226.01,133.452 C 209.653,122.102 195.869,141.221 188.859,154.047 C 187.116,157.416 184.725,160.825 183.631,164.153 C 182.496,166.832 182.66,169.428 182.176,172.065 C 181.691,174.703 183.112,176.569 183.276,179.166 C 184.088,181.721 185.51,183.587 187.581,185.411 C 195.131,191.453 205.559,191.446 214.523,188.924 z"
   style="fill:#8069b0;stroke:#483093;stroke-width:6.50449991" />
					</g>
				</g>
			</g>
		</g></svg>