<?xml version="1.0" encoding="UTF-8" standalone="no"?>
<!-- Generator: Adobe Illustrator 10, SVG Export Plug-In . SVG Version: 3.0.0 Build 76)  -->
<svg
   xmlns:dc="http://purl.org/dc/elements/1.1/"
   xmlns:cc="http://creativecommons.org/ns#"
   xmlns:rdf="http://www.w3.org/1999/02/22-rdf-syntax-ns#"
   xmlns:svg="http://www.w3.org/2000/svg"
   xmlns="http://www.w3.org/2000/svg"
   xmlns:sodipodi="http://sodipodi.sourceforge.net/DTD/sodipodi-0.dtd"
   xmlns:inkscape="http://www.inkscape.org/namespaces/inkscape"
   width="191.07249"
   height="297.25751"
   viewBox="0 0 468.311 376.586"
   style="overflow:visible"
   xml:space="preserve"
   id="svg2427"
   sodipodi:version="0.32"
   inkscape:version="0.46"
   sodipodi:docname="KnotB.svg"
   inkscape:output_extension="org.inkscape.output.svg.inkscape"
   version="1.0"><metadata
   id="metadata2477"><rdf:RDF><cc:Work
       rdf:about=""><dc:format>image/svg+xml</dc:format><dc:type
         rdf:resource="http://purl.org/dc/dcmitype/StillImage" /></cc:Work></rdf:RDF></metadata><defs
   id="defs2475"><inkscape:perspective
   sodipodi:type="inkscape:persp3d"
   inkscape:vp_x="0 : 188.293 : 1"
   inkscape:vp_y="0 : 1000 : 0"
   inkscape:vp_z="468.311 : 188.293 : 1"
   inkscape:persp3d-origin="234.1555 : 125.52867 : 1"
   id="perspective2479" />
		
		
	</defs><sodipodi:namedview
   inkscape:window-height="670"
   inkscape:window-width="824"
   inkscape:pageshadow="2"
   inkscape:pageopacity="0.0"
   guidetolerance="10.0"
   gridtolerance="10.0"
   objecttolerance="10.0"
   borderopacity="1.0"
   bordercolor="#666666"
   pagecolor="#ffffff"
   id="base"
   showgrid="false"
   inkscape:zoom="1.1616212"
   inkscape:cx="138.16896"
   inkscape:cy="188.293"
   inkscape:window-x="81"
   inkscape:window-y="0"
   inkscape:current-layer="svg2427" />
	<style
   type="text/css"
   id="style2429">
	
		@font-face{font-family:'Times-Roman';src:url(8FD1CCD5.cef)}
	
	</style>
	
<g
   transform="matrix(2.4509598,0,0,2.4509598,-18.145302,-175.98948)"
   style="overflow:visible"
   id="g2448">
			<g
   id="g2450">
				<path
   id="path2452"
   d="M 146.835,105.374 C 145.534,94.316 139.68,83.909 129.273,79.356 C 126.022,78.055 122.119,76.754 118.215,76.754 C 116.265,77.405 113.662,76.754 111.711,77.405 C 110.41,78.055 108.459,78.055 107.158,78.706 C 105.856,79.356 104.555,80.007 102.604,80.657 C 95.449,83.909 88.944,88.463 86.994,96.268 C 86.344,100.171 87.643,104.073 89.596,107.976 C 96.75,118.383 106.507,125.538 117.565,131.392 C 118.866,132.042 120.818,132.693 122.119,133.343 C 124.721,133.994 127.323,134.644 129.924,134.644 C 134.478,133.994 138.38,132.692 141.633,129.44 C 142.934,127.488 144.235,125.537 145.535,123.586 C 146.186,121.635 146.836,120.334 147.486,118.383 C 147.485,113.829 148.137,109.927 146.835,105.374 z"
   style="fill:#403458;stroke:#241849;stroke-width:6.50449991" />
				<path
   id="path2454"
   d="M 184.562,143.1 C 177.407,102.121 167.651,59.842 139.03,26.018 C 137.079,24.067 134.477,22.766 132.526,20.814 C 128.624,18.212 124.72,16.261 120.167,14.96 C 116.916,14.31 113.663,14.31 110.411,14.96 C 108.46,15.611 105.857,16.261 103.906,17.562 C 101.955,18.863 100.004,20.814 98.703,22.766 C 87.644,44.231 72.684,60.492 53.82,75.453 C 44.064,82.608 36.908,94.316 43.413,106.024 C 46.665,111.228 50.568,114.48 55.772,117.732 C 60.975,120.334 65.529,121.635 70.732,124.237 C 77.886,128.139 84.391,132.042 91.546,137.246 C 98.051,142.45 103.904,148.304 109.759,154.158 C 120.165,163.264 131.224,169.769 143.582,174.972 C 145.533,175.622 147.484,176.273 149.436,176.923 C 157.892,180.176 166.347,179.526 174.153,175.622 C 174.803,174.972 176.104,174.321 177.405,173.671 C 187.164,166.517 187.814,153.507 184.562,143.1 z M 135.777,156.759 C 124.719,150.905 116.915,142.449 106.506,134.644 C 105.856,133.994 105.205,132.692 104.555,132.042 C 94.148,123.586 83.09,118.383 71.382,110.577 C 66.829,107.325 64.227,102.772 64.227,97.568 C 64.227,85.86 76.585,80.006 85.042,72.851 C 94.798,64.395 101.953,55.289 109.759,45.532 C 121.467,37.727 135.126,47.484 140.981,58.541 C 142.282,60.492 142.932,63.094 144.233,65.045 C 150.087,78.705 153.99,91.713 157.893,106.024 C 159.843,113.829 160.494,121.635 161.795,129.441 C 162.445,134.645 163.096,139.848 162.445,145.052 C 161.795,147.654 161.144,149.605 160.493,152.207 C 159.843,154.158 157.892,156.109 156.591,157.41 C 150.088,161.963 142.282,160.662 135.777,156.759 z"
   style="fill:#403458;stroke:#241849;stroke-width:6.50449991" />
				<g
   id="g2456">
					<path
   id="path2458"
   d="M 154.641,94.316 C 153.34,92.364 153.34,90.413 152.69,88.462 C 148.788,78.705 141.632,69.599 130.575,67.647 C 127.323,66.997 123.42,67.647 120.167,67.647 C 118.216,68.297 115.615,68.948 113.663,69.599 C 111.061,71.55 107.809,72.851 105.207,74.803 C 103.906,76.104 102.605,76.754 101.305,78.055 C 100.655,79.356 99.354,80.006 98.703,81.307 C 98.053,83.258 96.1,85.21 96.1,87.161 C 96.1,90.413 95.45,94.316 97.402,97.568 C 99.353,100.17 100.654,102.772 102.605,105.374 C 103.906,106.024 105.207,107.326 105.857,108.626 C 106.507,109.276 107.159,109.276 107.809,109.927 C 108.459,110.578 108.459,111.228 109.11,111.878 C 120.167,120.334 133.827,131.392 147.486,122.936 C 148.137,122.286 149.438,120.985 150.739,119.684 C 156.592,112.528 155.941,102.772 154.641,94.316 z"
   style="fill:#8069b0;stroke:#483093;stroke-width:6.50449991" />
					<path
   id="path2460"
   d="M 193.668,130.091 C 193.018,129.441 192.367,128.139 192.367,127.489 C 181.96,85.21 170.252,42.28 137.728,11.708 C 134.476,9.106 130.574,7.155 126.671,5.204 C 124.068,3.903 120.817,3.903 118.214,3.252 C 116.264,3.252 114.962,3.252 113.011,3.252 C 109.109,4.553 105.205,5.854 102.604,9.106 C 99.352,14.31 97.401,19.513 95.449,24.717 C 91.547,33.823 85.693,41.629 79.187,49.434 C 71.382,58.54 62.276,65.045 54.47,74.802 C 49.267,82.607 48.616,92.364 55.772,99.519 C 56.422,100.169 55.772,100.82 56.422,101.47 C 60.324,104.722 64.227,107.975 68.78,110.576 C 85.042,117.731 99.351,127.488 112.36,139.196 C 122.117,148.953 133.825,156.758 146.184,162.612 C 150.086,164.563 153.338,165.215 157.241,167.166 C 166.999,170.418 178.706,169.768 187.163,162.612 C 189.764,160.661 191.065,158.058 192.366,155.457 C 193.667,152.856 194.317,149.603 194.968,147.001 C 195.619,141.148 194.969,135.945 193.668,130.091 z M 146.186,148.303 C 145.535,147.653 144.884,147.002 144.234,146.352 C 141.632,145.051 139.03,144.401 136.428,142.449 C 118.866,129.44 104.556,116.431 85.694,106.024 C 77.237,100.82 70.083,91.064 74.636,81.307 C 75.285,80.006 75.936,78.705 77.237,77.405 C 81.14,73.502 85.044,70.25 89.596,66.347 C 95.45,60.493 101.304,54.639 105.206,47.484 C 105.856,46.834 106.507,46.183 107.158,45.532 C 110.41,36.426 120.166,27.97 129.923,33.174 C 131.225,33.824 133.176,34.475 134.477,35.776 C 148.137,47.484 153.991,64.396 160.495,80.657 C 161.146,81.958 160.495,83.259 161.146,84.56 C 167,100.821 171.553,117.082 172.204,133.995 C 172.204,137.897 170.253,141.15 168.302,145.053 C 167.652,147.004 165.049,147.655 163.748,148.956 C 161.797,150.907 159.194,150.257 156.593,150.907 C 153.34,150.905 149.438,149.604 146.186,148.303 z"
   style="fill:#8069b0;stroke:#483093;stroke-width:6.50449991" />
				</g>
			</g>
			<g
   id="g2462">
				<path
   id="path2464"
   d="M 58.373,191.884 C 60.325,201.641 65.529,212.048 74.636,217.251 C 77.887,218.552 81.79,219.202 85.043,220.504 C 88.294,221.154 90.897,219.853 94.148,219.853 C 95.449,219.853 97.401,219.203 98.702,218.552 C 105.206,216.601 110.41,212.698 114.963,208.146 C 116.265,206.845 116.915,205.544 117.565,204.243 C 118.866,202.292 118.866,199.689 118.866,197.738 C 116.916,184.079 104.556,177.574 94.8,169.769 C 92.198,168.468 90.247,166.517 87.645,165.867 C 85.044,165.217 82.442,163.915 79.84,163.264 C 77.237,163.264 75.286,163.264 72.685,163.264 C 69.433,163.914 66.831,165.867 64.229,167.818 C 57.723,174.321 57.723,183.428 58.373,191.884 z"
   style="fill:#403458;stroke:#241849;stroke-width:6.50449991" />
				<path
   id="path2466"
   d="M 20.647,154.808 C 29.753,196.437 38.209,240.667 68.781,273.191 C 74.635,278.394 81.79,281.646 89.595,282.948 C 90.896,282.948 92.197,282.948 93.497,282.948 C 100.002,281.646 105.205,278.394 107.808,273.191 C 117.564,253.027 132.525,238.066 149.437,223.756 C 150.087,223.106 151.388,223.106 152.039,222.455 C 157.242,216.601 163.097,211.397 164.397,203.592 C 165.047,200.34 164.397,197.738 163.747,194.486 C 162.446,189.933 159.193,186.681 155.291,183.428 C 146.835,177.574 138.379,174.972 129.923,170.419 C 120.818,165.216 112.361,159.361 104.556,152.206 C 89.596,136.595 72.034,124.237 51.219,119.684 C 44.715,117.732 37.56,118.383 31.705,121.635 C 30.404,122.936 28.453,123.586 27.152,124.887 C 23.25,128.79 20.647,133.343 19.997,138.546 C 19.347,143.749 19.997,149.604 20.647,154.808 z M 70.082,140.498 C 79.839,147.002 90.246,154.157 98.702,163.264 C 103.905,167.818 108.459,171.07 114.312,174.972 C 115.614,175.622 116.915,175.622 117.564,176.273 C 122.118,180.176 127.322,181.477 132.525,185.379 C 138.379,189.933 142.932,195.786 141.631,203.592 C 140.981,206.845 139.028,209.446 137.077,212.048 C 124.068,223.106 111.059,232.212 100.002,247.173 C 99.352,248.474 98.051,250.425 96.099,251.726 C 90.896,255.628 84.391,256.279 78.537,253.027 C 58.373,240.017 55.122,215.3 48.617,194.486 C 46.014,184.729 44.715,174.972 43.413,164.565 C 43.413,161.313 42.112,158.711 42.763,155.459 C 43.413,153.508 43.413,151.557 43.413,149.605 C 44.064,148.304 44.715,147.003 45.364,145.052 C 47.967,140.499 52.519,137.246 57.722,137.246 C 62.276,137.246 66.18,138.546 70.082,140.498 z"
   style="fill:#403458;stroke:#241849;stroke-width:6.50449991" />
				<g
   id="g2468">
					<path
   id="path2470"
   d="M 51.219,202.941 C 54.471,212.698 59.025,222.455 68.781,227.659 C 72.683,229.61 76.586,230.261 81.139,230.261 C 85.042,229.611 88.944,228.96 92.197,227.659 C 95.449,225.707 99.352,223.756 102.604,221.154 C 103.254,219.852 104.555,219.202 105.856,217.901 C 118.214,202.291 100.002,187.331 87.643,179.525 C 84.391,177.573 81.139,174.971 77.886,173.671 C 75.284,172.37 72.683,172.37 70.081,171.72 C 67.479,171.07 65.528,172.37 62.926,172.37 C 60.324,173.02 58.372,174.321 56.422,176.272 C 49.918,183.428 49.268,193.835 51.219,202.941 z"
   style="fill:#8069b0;stroke:#483093;stroke-width:6.50449991" />
					<path
   id="path2472"
   d="M 12.191,167.167 C 17.394,189.282 23.25,210.747 32.355,231.562 C 34.306,236.115 36.908,240.667 38.86,245.221 C 44.064,255.628 50.568,264.735 57.073,274.492 C 59.024,277.094 61.626,279.045 63.577,281.646 C 64.878,282.948 66.83,284.249 68.131,285.549 C 70.733,288.152 73.985,290.103 77.236,291.403 C 79.839,292.704 82.44,293.354 85.693,294.005 C 88.294,294.005 90.246,294.005 92.847,294.005 C 95.449,293.355 98.051,292.054 100.653,290.753 C 103.905,288.802 105.856,284.899 106.507,281.646 C 114.313,258.88 131.225,243.27 148.137,227.009 C 155.291,219.853 158.544,208.146 151.389,199.038 C 146.835,193.184 141.632,189.282 135.127,186.03 C 125.371,181.476 116.915,176.923 107.809,169.768 C 98.703,163.263 91.547,155.457 82.441,148.303 C 75.286,143.099 68.131,138.546 59.675,134.644 C 58.373,133.994 57.723,134.644 56.423,133.994 C 43.413,126.839 25.852,125.538 16.094,137.896 C 15.444,139.197 14.144,140.498 13.493,141.799 C 10.89,148.303 10.24,154.808 10.89,161.313 C 10.891,163.264 11.541,165.216 12.191,167.167 z M 59.024,149.604 C 78.537,158.71 92.847,176.272 112.361,186.68 C 122.118,192.534 133.826,199.688 132.525,212.047 C 131.875,215.299 130.574,217.901 128.623,219.852 C 115.614,232.211 103.255,243.269 94.799,258.879 C 91.547,264.083 85.694,266.685 79.839,265.384 C 70.082,263.433 64.228,255.627 59.675,247.822 C 45.364,223.104 38.21,197.736 33.656,169.767 C 33.656,167.816 33.656,165.214 33.656,163.262 C 34.306,160.01 34.957,156.757 36.258,154.156 C 40.812,146.352 51.869,144.401 59.024,149.604 z"
   style="fill:#8069b0;stroke:#483093;stroke-width:6.50449991" />
				</g>
			</g>
		</g></svg>