<?xml version="1.0" encoding="UTF-8" standalone="no"?>
<!-- Generator: Adobe Illustrator 10, SVG Export Plug-In . SVG Version: 3.0.0 Build 76)  -->
<svg
   xmlns:dc="http://purl.org/dc/elements/1.1/"
   xmlns:cc="http://creativecommons.org/ns#"
   xmlns:rdf="http://www.w3.org/1999/02/22-rdf-syntax-ns#"
   xmlns:svg="http://www.w3.org/2000/svg"
   xmlns="http://www.w3.org/2000/svg"
   xmlns:sodipodi="http://sodipodi.sourceforge.net/DTD/sodipodi-0.dtd"
   xmlns:inkscape="http://www.inkscape.org/namespaces/inkscape"
   width="180.0614"
   height="298.94223"
   viewBox="0 0 468.311 377.037"
   style="overflow:visible"
   xml:space="preserve"
   id="svg2"
   sodipodi:version="0.32"
   inkscape:version="0.46"
   sodipodi:docname="KnotA.svg"
   inkscape:output_extension="org.inkscape.output.svg.inkscape"
   version="1.0"><metadata
   id="metadata52"><rdf:RDF><cc:Work
       rdf:about=""><dc:format>image/svg+xml</dc:format><dc:type
         rdf:resource="http://purl.org/dc/dcmitype/StillImage" /></cc:Work></rdf:RDF></metadata><defs
   id="defs50"><inkscape:perspective
   sodipodi:type="inkscape:persp3d"
   inkscape:vp_x="0 : 188.51849 : 1"
   inkscape:vp_y="0 : 1000 : 0"
   inkscape:vp_z="468.311 : 188.51849 : 1"
   inkscape:persp3d-origin="234.1555 : 125.679 : 1"
   id="perspective54" />
		
		
	</defs><sodipodi:namedview
   inkscape:window-height="670"
   inkscape:window-width="826"
   inkscape:pageshadow="2"
   inkscape:pageopacity="0.0"
   guidetolerance="10.0"
   gridtolerance="10.0"
   objecttolerance="10.0"
   borderopacity="1.0"
   bordercolor="#666666"
   pagecolor="#ffffff"
   id="base"
   showgrid="false"
   inkscape:zoom="1.1616212"
   inkscape:cx="138.16896"
   inkscape:cy="188.51849"
   inkscape:window-x="0"
   inkscape:window-y="64"
   inkscape:current-layer="svg2" />
	<style
   type="text/css"
   id="style4">
	
		@font-face{font-family:'Times-Roman';src:url(F7A44192.cef)}
	
	</style>
	
<g
   transform="matrix(2.6008406,0,0,2.6008406,-22.080353,-200.22054)"
   style="overflow:visible"
   id="g23">
			<g
   id="g25">
				<path
   id="path27"
   d="M 119.464,91.239 C 107.483,70.723 84.455,70.14 68.291,89.944 C 52.127,109.749 61.694,126.529 89.554,127.234 L 90.594,127.26 C 118.452,127.966 131.443,111.757 119.464,91.239 z"
   style="fill:#403458;stroke:#241849;stroke-width:6.50449991" />
				<path
   id="path29"
   d="M 172.877,114.469 L 119.258,32.17 C 104.046,8.821 79.917,9.298 65.639,33.23 L 27.624,96.942 C 13.346,120.875 24.386,142.337 52.158,144.635 L 150.04,152.74 C 177.812,155.04 188.09,137.818 172.877,114.469 z M 130.498,138.757 L 61.981,133.083 C 42.54,131.474 34.812,116.45 44.806,99.698 L 71.416,55.098 C 81.411,38.346 98.301,38.012 108.95,54.357 L 146.483,111.966 C 157.132,128.312 149.939,140.367 130.498,138.757 z"
   style="fill:#403458;stroke:#241849;stroke-width:6.50449991" />
				<g
   id="g31">
					<path
   id="path33"
   d="M 124.847,79.522 C 112.867,59.006 89.839,58.422 73.674,78.227 C 57.511,98.032 67.078,114.812 94.938,115.517 L 95.978,115.542 C 123.836,116.249 136.827,100.039 124.847,79.522 z"
   style="fill:#8069b0;stroke:#483093;stroke-width:6.50449991" />
					<path
   id="path35"
   d="M 178.261,102.752 L 124.642,20.453 C 109.43,-2.896 85.301,-2.419 71.021,21.512 L 33.008,85.226 C 18.729,109.159 29.77,130.621 57.542,132.919 L 155.424,141.024 C 183.196,143.323 193.473,126.101 178.261,102.752 z M 135.882,127.04 L 67.364,121.366 C 47.924,119.757 40.195,104.733 50.19,87.98 L 76.8,43.381 C 86.794,26.629 103.685,26.295 114.334,42.64 L 151.867,100.249 C 162.516,116.594 155.322,128.649 135.882,127.04 z"
   style="fill:#8069b0;stroke:#483093;stroke-width:6.50449991" />
				</g>
			</g>
			<g
   id="g37">
				<path
   id="path39"
   d="M 77.577,207.692 C 89.558,228.209 112.585,228.792 128.75,208.988 C 144.914,189.183 135.346,172.404 107.487,171.698 L 106.447,171.672 C 78.588,170.967 65.598,187.177 77.577,207.692 z"
   style="fill:#403458;stroke:#241849;stroke-width:6.50449991" />
				<path
   id="path41"
   d="M 24.164,184.464 L 77.783,266.763 C 92.995,290.113 117.124,289.635 131.402,265.704 L 169.416,201.989 C 183.695,178.058 172.654,156.596 144.882,154.297 L 47,146.192 C 19.228,143.893 8.951,161.114 24.164,184.464 z M 66.543,160.176 L 135.06,165.85 C 154.5,167.459 162.228,182.483 152.234,199.235 L 125.624,243.835 C 115.629,260.587 98.739,260.921 88.091,244.576 L 50.558,186.968 C 39.908,170.622 47.102,158.566 66.543,160.176 z"
   style="fill:#403458;stroke:#241849;stroke-width:6.50449991" />
				<g
   id="g43">
					<path
   id="path45"
   d="M 72.193,219.41 C 84.173,239.927 107.202,240.509 123.366,220.705 C 139.53,200.901 129.963,184.121 102.103,183.416 L 101.062,183.39 C 73.205,182.685 60.214,198.894 72.193,219.41 z"
   style="fill:#8069b0;stroke:#483093;stroke-width:6.50449991" />
					<path
   id="path47"
   d="M 18.78,196.181 L 72.399,278.48 C 87.611,301.83 111.74,301.352 126.018,277.421 L 164.033,213.707 C 178.311,189.775 167.271,168.313 139.498,166.014 L 41.617,157.91 C 13.844,155.609 3.568,172.831 18.78,196.181 z M 61.158,171.894 L 129.676,177.567 C 149.117,179.176 156.845,194.201 146.85,210.952 L 120.241,255.552 C 110.246,272.305 93.356,272.638 82.707,256.293 L 45.174,198.685 C 34.525,182.339 41.719,170.283 61.158,171.894 z"
   style="fill:#8069b0;stroke:#483093;stroke-width:6.50449991" />
				</g>
			</g>
		</g></svg>